<svg width="213" height="30" viewBox="0 0 213 30" fill="none" xmlns="http://www.w3.org/2000/svg">
<path d="M14.6735 6.6422C14.6576 6.59435 14.6416 6.55448 14.6336 6.52258C14.5938 6.39499 14.5459 6.27537 14.4662 6.15575C14.4024 6.06006 14.3226 5.97234 14.2269 5.91652C14.0914 5.8288 14.0435 5.70121 14.0356 5.55767C14.0196 5.41413 14.0356 5.27059 14.0675 5.13502C14.1312 4.89578 14.2429 4.69642 14.4582 4.56883C14.522 4.52896 14.5938 4.51301 14.6655 4.48909C14.7533 4.46516 14.8011 4.52098 14.849 4.57681C14.9446 4.7044 15.0403 4.83199 15.0962 4.9835C15.144 5.09515 15.1839 5.20679 15.1919 5.32641C15.1919 5.37425 15.2158 5.4221 15.2078 5.46995C15.2078 5.66133 15.1679 5.84475 15.0962 6.02019C15.0164 6.2036 14.9127 6.36309 14.7931 6.5146C14.7612 6.55448 14.7214 6.59435 14.6815 6.6422H14.6735Z" fill="#282828"/>
<path d="M14.2266 6.17262C14.107 6.26831 13.9874 6.33211 13.8359 6.32413C13.7561 6.32413 13.7322 6.27629 13.7242 6.20452C13.7242 6.07693 13.7163 5.95731 13.7242 5.82972C13.7322 5.7101 13.7561 5.59048 13.8359 5.46289C13.8359 5.48681 13.8359 5.50276 13.8359 5.51871C13.8359 5.60643 13.8359 5.69415 13.8518 5.7739C13.8678 5.86161 13.9316 5.92541 13.9954 5.98123C14.0672 6.03705 14.1389 6.10882 14.2187 6.17262H14.2266Z" fill="#282828"/>
<path d="M13.5408 4.1543C13.6764 4.17025 13.7641 4.25797 13.7721 4.38556C13.7801 4.50517 13.6684 4.62479 13.5408 4.61682C13.4053 4.61682 13.3096 4.52112 13.3096 4.38556C13.3096 4.24202 13.4132 4.16227 13.5408 4.1543ZM13.5408 4.51315C13.6206 4.51315 13.7003 4.44935 13.7003 4.36163C13.7003 4.27391 13.6206 4.20214 13.5488 4.21012C13.4611 4.21012 13.3893 4.28189 13.3893 4.36163C13.3893 4.40151 13.4132 4.44138 13.4451 4.47328C13.477 4.50517 13.5089 4.51315 13.5488 4.51315H13.5408Z" fill="#282828"/>
<path d="M13.5488 4.44139C13.493 4.44139 13.4531 4.40152 13.4531 4.34569C13.4531 4.29785 13.501 4.25 13.5568 4.25C13.5967 4.25 13.6525 4.30582 13.6525 4.35367C13.6525 4.40151 13.5967 4.44139 13.5488 4.44139Z" fill="#282828"/>
<path d="M14.6651 4.04306C14.5614 3.92344 14.4258 3.85965 14.2823 3.8118C14.2026 3.7799 14.1148 3.76395 14.0271 3.74003C13.9155 3.71611 13.8038 3.68421 13.6922 3.67624C13.5407 3.66826 13.3892 3.67624 13.2376 3.67624C13.0622 3.67624 12.8947 3.70813 12.7273 3.75598C12.6156 3.78788 12.504 3.83573 12.3923 3.8756C12.2408 3.93142 12.1053 4.01914 11.9697 4.11483C11.7624 4.26635 11.5869 4.44179 11.4434 4.64912C11.3716 4.75279 11.3158 4.87241 11.244 4.97608C11.1802 5.07177 11.1005 5.16746 11.0287 5.26316C10.941 5.36683 10.6778 5.56619 10.5502 5.6858C10.4386 5.7496 10.319 5.79745 10.1834 5.82137C9.88836 5.89314 9.5614 5.85327 9.27432 5.72568C9.22647 5.65391 9.17065 5.58214 9.10686 5.51834C8.85167 5.25518 8.58054 5.02392 8.27751 4.81659C7.90271 4.5614 7.53588 4.29027 7.15311 4.04306C6.62679 3.70813 6.08453 3.38118 5.54226 3.0622C4.97608 2.73525 4.40191 2.41627 3.82775 2.10526C3.47687 1.91388 3.11005 1.74641 2.7512 1.57097C2.38437 1.38756 2.03349 1.17225 1.72249 0.893142C1.42743 0.62201 1.11643 0.366826 0.813397 0.103668C0.773525 0.0717703 0.733652 0.0318979 0.69378 0L0.677831 0.015949C0.701754 0.0956938 0.717703 0.175439 0.749601 0.255183C0.853269 0.502392 0.940989 0.757576 1.06061 0.99681C1.14833 1.18022 1.26794 1.35566 1.39553 1.51515C1.48325 1.63477 1.61085 1.72249 1.73844 1.85008C1.11643 1.61085 0.510367 1.38756 0 0.964912C0.175439 1.35566 0.422647 1.69059 0.725678 1.98565C1.02871 2.2807 1.37959 2.50399 1.81021 2.59171C1.30781 2.64753 0.805423 2.64753 0.318979 2.45614C0.797448 3.03828 1.37161 3.437 2.16906 3.437C2.11324 3.45295 2.05742 3.4689 2.00957 3.48485C1.85008 3.50877 1.68262 3.54067 1.52313 3.55662C1.37161 3.57257 1.2201 3.58054 1.06858 3.58054C1.01276 3.58054 0.956938 3.55662 0.909091 3.54864C0.893142 3.54864 0.861244 3.54864 0.853269 3.54864C0.845295 3.56459 0.845295 3.59649 0.853269 3.61244C0.956938 3.83573 1.1244 3.97129 1.34769 4.06699C1.55502 4.1547 1.77033 4.17065 1.98565 4.1866C2.07336 4.1866 2.16108 4.17065 2.24083 4.17065C2.25678 4.17065 2.27273 4.17863 2.2807 4.21053C1.9697 4.2504 1.65072 4.29027 1.30781 4.33812C1.68262 4.5933 2.08931 4.73684 2.49601 4.84848C2.91069 4.96013 3.33333 5.05582 3.77193 5.0319C3.34131 5.19936 2.93461 5.42265 2.44817 5.45454C2.52791 5.53429 2.59968 5.61403 2.6874 5.67783C2.86284 5.80542 3.05423 5.87719 3.26156 5.92504C3.44498 5.96491 3.63636 5.99681 3.82775 6.02073C4.01914 6.03668 4.20255 6.03668 4.39394 6.03668C4.39394 6.05263 4.39394 6.06061 4.40191 6.07655C4.03509 6.21212 3.66826 6.34769 3.27751 6.49123C3.85167 6.83413 4.44976 6.99362 5.11164 6.874C5.11164 6.88198 5.11164 6.89793 5.11962 6.9059C4.78469 7.04944 4.44179 7.19298 4.09888 7.33652C4.31419 7.52791 4.58533 7.59171 4.87241 7.6236C5.15949 7.6555 5.4386 7.60765 5.70973 7.52791C5.70973 7.53588 5.7177 7.55183 5.72568 7.55981C5.45455 7.67145 5.17544 7.78309 4.88038 7.91069C4.94418 7.95056 4.99203 7.9984 5.03987 8.01435C5.17544 8.05423 5.311 8.10207 5.44657 8.126C5.62201 8.14992 5.80542 8.17384 5.98086 8.17384C6.19617 8.17384 6.40351 8.14194 6.61084 8.11802C6.77831 8.10207 6.95375 8.07815 7.12919 8.05422C7.12121 8.07017 7.11324 8.07815 7.10526 8.08612C6.563 8.5008 5.91707 8.75598 5.25518 8.97129C6.31579 9.13078 6.66667 8.98724 7.32057 8.58852C7.33652 8.58054 6.9378 9.05901 6.91388 9.08293C6.54705 9.46571 5.89314 9.5933 5.25518 9.84848C5.75758 9.91228 6.65072 10.1595 7.16108 9.98405L6.96172 10.2472C7.12919 10.2951 5.75758 10.7018 5.86922 10.8373C5.95694 10.941 7.07336 11.0526 7.49601 11.1722C8.32536 11.9059 8.11802 11.9218 7.74322 12.5439C7.15311 13.5088 4.25837 17.9665 4.25837 17.9665C4.25837 17.9665 3.95534 18.4848 4.45774 18.2536C4.42584 18.2855 9.1866 12.6156 9.84848 11.7703C9.88038 11.7703 9.90431 11.7624 9.9362 11.7544C10.0399 11.7305 10.1435 11.6986 10.2472 11.6667C10.3907 11.6188 10.5423 11.5789 10.6858 11.5231C10.8453 11.4593 10.9888 11.3796 11.1403 11.2998C11.3158 11.2121 11.4753 11.0925 11.6268 10.9649C11.874 10.7655 12.0813 10.5343 12.2488 10.2632C12.3365 10.1196 12.4242 9.97608 12.496 9.82456C12.5518 9.71292 12.5997 9.58533 12.6396 9.46571C12.6794 9.34609 12.7193 9.2185 12.7512 9.09091C12.7831 8.97129 12.807 8.85167 12.8309 8.73206C12.8549 8.62041 12.8628 8.5008 12.8788 8.38118C12.9027 8.16587 12.9187 7.95853 12.9346 7.74322C12.9346 7.67943 12.9346 7.61563 12.9506 7.55981C12.9745 7.48804 13.0064 7.40829 13.0463 7.3445C13.0861 7.27273 13.1419 7.20893 13.1978 7.14513C13.3094 7.02552 13.445 6.9378 13.5167 6.78628C13.5407 6.73046 13.5167 6.64274 13.4609 6.61882C13.3971 6.5949 13.3333 6.57097 13.2695 6.563C13.0781 6.5311 12.9745 6.39553 12.9426 6.23604C12.9187 6.11643 12.9266 5.99681 12.9585 5.86922C12.9984 5.74163 13.0463 5.62201 13.126 5.51834C13.2217 5.38277 13.3493 5.27113 13.4928 5.19139C13.5805 5.14354 13.6842 5.11164 13.7799 5.07974C13.8437 5.05582 13.8915 5.04785 13.9155 4.9681C13.9474 4.85646 14.0112 4.75279 14.075 4.6571C14.1388 4.56938 14.2265 4.48166 14.3222 4.41786C14.4179 4.34609 14.5295 4.30622 14.6571 4.29824C14.6651 4.29824 14.681 4.2823 14.681 4.27432C14.681 4.19458 14.673 4.11483 14.6172 4.04306H14.6651ZM14.0431 4.42584C13.9793 4.52153 13.9155 4.60925 13.8676 4.70494C13.756 4.92025 13.5965 5.07974 13.3812 5.19936C13.2935 5.24721 13.134 5.24721 13.0702 5.14354C13.0383 5.07974 13.0064 5.0319 13.0144 4.95215C13.0223 4.89633 13.0383 4.85646 13.0702 4.80861C13.126 4.71292 13.118 4.68899 13.0223 4.61722C12.9665 4.56938 12.9107 4.51356 12.8628 4.44976C12.823 4.39394 12.799 4.30622 12.799 4.23445C12.799 4.17065 12.8389 4.13078 12.9027 4.11483C13.0144 4.09091 13.126 4.07496 13.2376 4.03509C13.437 3.96332 13.6603 3.93939 13.8756 3.97129C13.9793 3.98724 14.059 4.05104 14.0989 4.1547C14.1308 4.24242 14.0989 4.32217 14.059 4.39394C14.059 4.40191 14.0431 4.40989 14.0431 4.42584Z" fill="#282828"/>
<path d="M11.7861 11.3237C11.7861 11.3237 13.8515 9.60917 14.3938 10.1754C14.3539 10.1355 13.8356 8.66818 11.7861 11.3237Z" fill="#282828"/>
<path d="M15.9416 29.9924L10.4392 30.0004V29.0195H15.4232L17.7199 25.6064V13.1184L9.10742 13.1264L9.8969 12.1535L18.6927 12.1455L18.7007 25.9095L15.9416 29.9924Z" fill="#282828"/>
<path d="M1.79434 25.6222V13.1262H7.12129L7.72735 12.1533H0.813477L0.821451 25.9093L3.41316 30.0002H9.47376V29.0193L3.95542 29.0273L1.79434 25.6222Z" fill="#282828"/>
<path d="M3.77189 15.1918H5.81335L6.37954 14.3066L2.88672 14.3146L2.89469 16.7628H3.77189V15.1918Z" fill="#282828"/>
<path d="M9.17059 27.6956V26.8184H4.86437L3.77187 25.2395L3.78782 25.2156L10.2152 16.1566L10.2073 14.3145H8.11796L7.43215 15.1916H9.33008V15.8775L2.69531 25.2395L4.40185 27.6956H9.17059Z" fill="#282828"/>
<path d="M10.4223 26.7622L10.4143 16.3555L9.44141 17.7351L9.44938 27.6872L10.4302 27.6792L10.4223 26.7622Z" fill="#282828"/>
<path d="M10.4941 14.3145V15.2873H15.5739V25.2554L14.5771 26.7546L10.6935 26.7626V27.6797L15.0954 27.6717L16.5468 25.5505V14.3145H10.4941Z" fill="#282828"/>
<path d="M29.827 14.62C29.5857 13.8099 29.3788 13.2928 29.1031 13.0688C28.879 12.9137 28.4998 12.8792 28.3102 12.8792C28.1206 12.8792 28 12.8619 28 12.6896C28 12.5345 28.1551 12.5 28.4309 12.5C29.465 12.5 30.5336 12.5689 30.7232 12.5689C30.9128 12.5689 31.7746 12.5 32.9121 12.5C33.1879 12.5 33.3258 12.5689 33.3258 12.6896C33.3258 12.8619 33.1707 12.8792 32.9638 12.8792C32.8087 12.8792 32.6019 12.8792 32.464 12.9654C32.2916 13.0515 32.2399 13.2067 32.2399 13.448C32.2399 13.7237 32.4295 14.4648 32.6708 15.4473C32.9983 16.8778 34.8425 23.479 35.1872 24.7028H35.2389L39.0652 13.3618C39.2548 12.7585 39.3927 12.5862 39.565 12.5862C39.7891 12.5862 39.8753 12.9137 40.1338 13.6031L44.2359 24.5476H44.2876C44.6495 23.0826 46.218 17.3432 46.9074 14.7923C47.0453 14.2925 47.097 13.8271 47.097 13.5341C47.097 13.1894 46.9246 12.8792 46.149 12.8792C45.9594 12.8792 45.8215 12.8102 45.8215 12.6896C45.8215 12.5345 45.9767 12.5 46.2697 12.5C47.321 12.5 48.1483 12.5689 48.3207 12.5689C48.4586 12.5689 49.3031 12.5 49.9581 12.5C50.1821 12.5 50.32 12.5517 50.32 12.6724C50.32 12.8275 50.2166 12.8964 50.0442 12.8964C49.8547 12.8964 49.5789 12.9137 49.3548 12.9998C48.8895 13.1894 48.6654 14.0684 48.2517 15.3094C47.3383 18.0498 45.27 24.9785 44.3048 28.236C44.0807 28.9944 43.9946 29.2529 43.736 29.2529C43.5464 29.2529 43.4258 28.9944 43.1328 28.1843L39.0307 17.2742H38.9963C38.6171 18.3773 35.9973 26.0988 35.1527 28.0982C34.7736 28.9944 34.6874 29.2529 34.4461 29.2529C34.2565 29.2529 34.1703 29.0116 33.998 28.4429L29.8097 14.62H29.827Z" fill="#282828"/>
<path d="M53.7672 18.8077C53.7672 15.4985 53.7672 14.8952 53.7328 14.1886C53.6983 13.4475 53.5432 13.1027 52.8882 12.9476C52.7331 12.9132 52.3884 12.8787 52.1126 12.8787C51.8886 12.8787 51.7852 12.827 51.7852 12.6891C51.7852 12.5512 51.923 12.4995 52.216 12.4995C52.7503 12.4995 53.3191 12.5167 53.8189 12.5167C54.336 12.534 54.7841 12.5684 55.0599 12.5684C55.6976 12.5684 59.6101 12.5684 59.9893 12.5512C60.3684 12.4995 60.6787 12.465 60.8338 12.4133C60.9372 12.3961 61.0579 12.3271 61.144 12.3271C61.2302 12.3271 61.2647 12.4133 61.2647 12.5167C61.2647 12.6719 61.1613 12.9304 61.1096 13.9301C61.0923 14.1541 61.0579 15.1021 61.0062 15.3606C60.9889 15.464 60.9545 15.6019 60.8166 15.6019C60.6787 15.6019 60.6442 15.4985 60.6442 15.2917C60.6442 15.1365 60.627 14.7746 60.5236 14.5161C60.3857 14.1196 60.1961 13.8611 59.1964 13.7232C58.869 13.6715 56.7835 13.637 56.4043 13.637C56.3009 13.637 56.2664 13.706 56.2664 13.8611V19.3765C56.2664 19.5316 56.2836 19.6178 56.4043 19.6178C56.8352 19.6178 59.1103 19.6178 59.5584 19.5661C60.0237 19.5316 60.334 19.4627 60.5063 19.2386C60.6442 19.0662 60.7304 18.9628 60.8166 18.9628C60.9028 18.9628 60.9545 19.0145 60.9545 19.1352C60.9545 19.2558 60.8683 19.6178 60.7993 20.7208C60.7821 21.1517 60.7132 22.0308 60.7132 22.1859C60.7132 22.3582 60.7132 22.5995 60.5408 22.5995C60.4029 22.5995 60.3684 22.5133 60.3684 22.4099C60.3512 22.1859 60.3512 21.9101 60.2823 21.6343C60.1789 21.2034 59.9031 20.876 59.1792 20.7898C58.8 20.7381 56.8524 20.7208 56.3698 20.7208C56.2664 20.7208 56.2492 20.807 56.2492 20.9449V22.6685C56.2492 23.4096 56.2319 25.4089 56.2492 26.0466C56.2836 27.5461 56.6111 27.8736 58.6104 27.8736C59.1275 27.8736 59.9548 27.8736 60.4719 27.6151C60.9889 27.3565 61.213 26.8912 61.3509 26.0122C61.3853 25.7709 61.4371 25.6847 61.5749 25.6847C61.7301 25.6847 61.7301 25.857 61.7301 26.0811C61.7301 26.5809 61.5749 28.0632 61.4715 28.4941C61.3336 29.0628 61.1613 29.0628 60.4029 29.0628C58.9207 29.0628 57.8348 29.0111 56.9903 28.9939C56.1457 28.9422 55.5253 28.925 54.9393 28.925C54.7152 28.925 54.2843 28.925 53.8189 28.9422C53.3708 28.9422 52.8538 28.9939 52.4573 28.9939C52.1988 28.9939 52.0609 28.925 52.0609 28.7698C52.0609 28.6664 52.1471 28.5975 52.3712 28.5975C52.6642 28.5975 52.9055 28.5458 53.0778 28.5113C53.4742 28.4251 53.5777 27.9425 53.6466 27.3221C53.75 26.4086 53.75 24.685 53.75 22.6857V18.8594L53.7672 18.8077Z" fill="#282828"/>
<path d="M69.4687 22.6345C69.4687 25.4266 69.4687 26.9261 69.8823 27.3226C70.2098 27.65 70.7269 27.8051 72.2609 27.8051C73.3122 27.8051 74.0706 27.7879 74.5704 27.2019C74.8117 26.9261 75.0358 26.3057 75.0875 25.892C75.1047 25.7024 75.1392 25.5645 75.3115 25.5645C75.4494 25.5645 75.4667 25.6679 75.4667 25.9265C75.4667 26.1678 75.3288 27.8051 75.1737 28.4256C75.053 28.9082 74.9496 29.0116 73.9327 29.0116C72.5194 29.0116 71.4853 28.9599 70.6062 28.9427C69.7272 28.891 69.0033 28.8738 68.1933 28.8738C67.9692 28.8738 67.5383 28.8737 67.073 28.891C66.6248 28.891 66.1078 28.9427 65.7114 28.9427C65.4528 28.9427 65.3149 28.8738 65.3149 28.7186C65.3149 28.6152 65.4011 28.5463 65.6252 28.5463C65.9182 28.5463 66.1595 28.4946 66.3318 28.4601C66.7282 28.3739 66.8317 27.8913 66.9006 27.2708C67.004 26.3574 67.004 24.6338 67.004 22.6345V18.8082C67.004 15.499 67.004 14.8957 66.9695 14.1891C66.9351 13.448 66.78 13.1032 66.125 12.9481C65.9699 12.9136 65.7286 12.8792 65.4701 12.8792C65.246 12.8792 65.1426 12.8275 65.1426 12.6896C65.1426 12.5517 65.2805 12.5 65.5735 12.5C66.5042 12.5 67.7451 12.5689 68.2794 12.5689C68.7448 12.5689 70.1926 12.5 70.9682 12.5C71.244 12.5 71.3818 12.5517 71.3818 12.6896C71.3818 12.8275 71.2612 12.8792 71.0199 12.8792C70.7958 12.8792 70.4856 12.8964 70.2443 12.9481C69.71 13.0515 69.5549 13.4307 69.5204 14.1891C69.4859 14.8785 69.4859 15.499 69.4859 18.8082V22.6345H69.4687Z" fill="#282828"/>
<path d="M82.1884 22.6345C82.1884 25.4266 82.1884 26.9261 82.6021 27.3226C82.9296 27.65 83.4466 27.8051 84.9806 27.8051C86.0319 27.8051 86.7903 27.7879 87.2901 27.2019C87.5314 26.9261 87.7555 26.3057 87.8072 25.892C87.8244 25.7024 87.8589 25.5645 88.0313 25.5645C88.1692 25.5645 88.1864 25.6679 88.1864 25.9265C88.1864 26.1678 88.0485 27.8051 87.8934 28.4256C87.7727 28.9082 87.6693 29.0116 86.6524 29.0116C85.2391 29.0116 84.205 28.9599 83.326 28.9427C82.447 28.891 81.7231 28.8738 80.913 28.8738C80.6889 28.8738 80.258 28.8737 79.7927 28.891C79.3446 28.891 78.8275 28.9427 78.4311 28.9427C78.1725 28.9427 78.0347 28.8738 78.0347 28.7186C78.0347 28.6152 78.1208 28.5463 78.3449 28.5463C78.6379 28.5463 78.8792 28.4946 79.0516 28.4601C79.448 28.3739 79.5514 27.8913 79.6203 27.2708C79.7237 26.3574 79.7237 24.6338 79.7237 22.6345V18.8082C79.7237 15.499 79.7237 14.8957 79.6893 14.1891C79.6548 13.448 79.4997 13.1032 78.8447 12.9481C78.6896 12.9136 78.4483 12.8792 78.1898 12.8792C77.9657 12.8792 77.8623 12.8275 77.8623 12.6896C77.8623 12.5517 78.0002 12.5 78.2932 12.5C79.2239 12.5 80.4649 12.5689 80.9992 12.5689C81.4645 12.5689 82.9123 12.5 83.6879 12.5C83.9637 12.5 84.1016 12.5517 84.1016 12.6896C84.1016 12.8275 83.9809 12.8792 83.7396 12.8792C83.5156 12.8792 83.2053 12.8964 82.964 12.9481C82.4297 13.0515 82.2746 13.4307 82.2401 14.1891C82.2057 14.8785 82.2057 15.499 82.2057 18.8082V22.6345H82.1884Z" fill="#282828"/>
<path d="M93.5471 25.9957C93.5815 27.702 93.8401 28.2535 94.2365 28.4087C94.564 28.5466 94.9431 28.5638 95.2534 28.5638C95.4774 28.5638 95.5808 28.6155 95.5808 28.7361C95.5808 28.9085 95.4085 28.9602 95.1327 28.9602C93.8573 28.9602 93.0645 28.8913 92.6853 28.8913C92.5129 28.8913 91.5822 28.9602 90.5481 28.9602C90.2895 28.9602 90.1172 28.943 90.1172 28.7361C90.1172 28.5983 90.2378 28.5638 90.4274 28.5638C90.686 28.5638 91.0307 28.5466 91.3064 28.4604C91.8235 28.288 91.8924 27.6503 91.9097 25.7544L92.082 12.8622C92.082 12.4313 92.1337 12.1211 92.3406 12.1211C92.5646 12.1211 92.737 12.3969 93.0645 12.7933C93.3058 13.069 96.3047 16.6196 99.1831 19.7909C100.527 21.2732 103.182 24.41 103.526 24.7547H103.63L103.44 14.9822C103.423 13.6551 103.251 13.2414 102.768 13.0173C102.475 12.8795 101.992 12.8795 101.717 12.8795C101.475 12.8795 101.406 12.8105 101.406 12.6899C101.406 12.5175 101.631 12.5003 101.924 12.5003C102.94 12.5003 103.888 12.5692 104.302 12.5692C104.526 12.5692 105.267 12.5003 106.232 12.5003C106.491 12.5003 106.681 12.5175 106.681 12.6899C106.681 12.8278 106.56 12.8795 106.319 12.8795C106.129 12.8795 105.957 12.8795 105.733 12.9484C105.181 13.1208 105.026 13.5861 105.009 14.7926L104.785 28.5293C104.785 29.0119 104.698 29.2015 104.526 29.2015C104.302 29.2015 104.078 28.9602 103.854 28.7189C102.613 27.409 100.079 24.5651 98.0283 22.3245C95.8738 19.9805 93.6849 17.2573 93.3402 16.8436H93.2885L93.5126 25.9957H93.5471Z" fill="#282828"/>
<path d="M111.489 18.8077C111.489 15.4985 111.489 14.8952 111.454 14.1886C111.42 13.4475 111.265 13.1027 110.61 12.9476C110.455 12.9132 110.11 12.8787 109.834 12.8787C109.61 12.8787 109.507 12.827 109.507 12.6891C109.507 12.5512 109.645 12.4995 109.938 12.4995C110.472 12.4995 111.041 12.5167 111.541 12.5167C112.058 12.534 112.506 12.5684 112.782 12.5684C113.419 12.5684 117.332 12.5684 117.711 12.5512C118.09 12.4995 118.4 12.465 118.555 12.4133C118.659 12.3961 118.78 12.3271 118.866 12.3271C118.952 12.3271 118.986 12.4133 118.986 12.5167C118.986 12.6719 118.883 12.9304 118.831 13.9301C118.814 14.1541 118.78 15.1021 118.728 15.3606C118.711 15.464 118.676 15.6019 118.538 15.6019C118.4 15.6019 118.366 15.4985 118.366 15.2917C118.366 15.1365 118.349 14.7746 118.245 14.5161C118.107 14.1196 117.918 13.8611 116.918 13.7232C116.591 13.6715 114.505 13.637 114.126 13.637C114.023 13.637 113.988 13.706 113.988 13.8611V19.3765C113.988 19.5316 114.005 19.6178 114.126 19.6178C114.557 19.6178 116.832 19.6178 117.28 19.5661C117.745 19.5316 118.056 19.4627 118.228 19.2386C118.366 19.0662 118.452 18.9628 118.538 18.9628C118.624 18.9628 118.676 19.0145 118.676 19.1352C118.676 19.2558 118.59 19.6178 118.521 20.7208C118.504 21.1517 118.435 22.0308 118.435 22.1859C118.435 22.3582 118.435 22.5995 118.262 22.5995C118.125 22.5995 118.09 22.5133 118.09 22.4099C118.073 22.1859 118.073 21.9101 118.004 21.6343C117.901 21.2034 117.625 20.876 116.901 20.7898C116.522 20.7381 114.574 20.7208 114.091 20.7208C113.988 20.7208 113.971 20.807 113.971 20.9449V22.6685C113.971 23.4096 113.954 25.4089 113.971 26.0466C114.005 27.5461 114.333 27.8736 116.332 27.8736C116.849 27.8736 117.676 27.8736 118.194 27.6151C118.711 27.3565 118.935 26.8912 119.073 26.0122C119.107 25.7709 119.159 25.6847 119.297 25.6847C119.452 25.6847 119.452 25.857 119.452 26.0811C119.452 26.5809 119.297 28.0632 119.193 28.4941C119.055 29.0628 118.883 29.0628 118.125 29.0628C116.642 29.0628 115.557 29.0111 114.712 28.9939C113.867 28.9422 113.247 28.925 112.661 28.925C112.437 28.925 112.006 28.925 111.541 28.9422C111.093 28.9422 110.575 28.9939 110.179 28.9939C109.92 28.9939 109.783 28.925 109.783 28.7698C109.783 28.6664 109.869 28.5975 110.093 28.5975C110.386 28.5975 110.627 28.5458 110.8 28.5113C111.196 28.4251 111.299 27.9425 111.368 27.3221C111.472 26.4086 111.472 24.685 111.472 22.6857V18.8594L111.489 18.8077Z" fill="#282828"/>
<path d="M123.657 28.6839C123.346 28.5287 123.277 28.4253 123.277 27.9427C123.277 26.7535 123.364 25.4436 123.381 25.0989C123.398 24.7714 123.467 24.5301 123.622 24.5301C123.794 24.5301 123.812 24.7197 123.812 24.892C123.812 25.1678 123.898 25.6332 123.984 25.9951C124.415 27.598 125.587 28.2013 126.811 28.2013C128.586 28.2013 129.448 26.8741 129.448 25.7193C129.448 24.6507 129.155 23.6511 127.517 22.2378L126.604 21.4622C124.432 19.5835 123.691 18.0668 123.691 16.3087C123.691 13.913 125.501 12.1895 128.241 12.1895C129.517 12.1895 130.344 12.4135 130.861 12.5514C131.033 12.5859 131.137 12.6548 131.137 12.8099C131.137 13.0857 131.051 13.7234 131.051 15.4297C131.051 15.9123 130.999 16.0847 130.827 16.0847C130.689 16.0847 130.637 15.9468 130.637 15.6883C130.637 15.4987 130.534 14.8093 130.12 14.2577C129.827 13.8441 129.258 13.1891 127.965 13.1891C126.5 13.1891 125.621 14.1198 125.621 15.4297C125.621 16.4294 126.069 17.1878 127.707 18.5666L128.258 19.032C130.637 21.014 131.499 22.5135 131.499 24.5818C131.499 25.84 131.068 27.3395 129.637 28.3736C128.655 29.063 127.552 29.2699 126.5 29.2699C125.363 29.2699 124.467 29.1147 123.622 28.7011L123.657 28.6839Z" fill="#282828"/>
<path d="M135.911 28.6839C135.601 28.5287 135.532 28.4253 135.532 27.9427C135.532 26.7535 135.618 25.4436 135.636 25.0989C135.653 24.7714 135.722 24.5301 135.877 24.5301C136.049 24.5301 136.067 24.7197 136.067 24.892C136.067 25.1678 136.153 25.6332 136.239 25.9951C136.67 27.598 137.842 28.2013 139.066 28.2013C140.841 28.2013 141.703 26.8741 141.703 25.7193C141.703 24.6507 141.41 23.6511 139.772 22.2378L138.859 21.4622C136.687 19.5835 135.946 18.0668 135.946 16.3087C135.946 13.913 137.756 12.1895 140.496 12.1895C141.771 12.1895 142.599 12.4135 143.116 12.5514C143.288 12.5859 143.392 12.6548 143.392 12.8099C143.392 13.0857 143.305 13.7234 143.305 15.4297C143.305 15.9123 143.254 16.0847 143.081 16.0847C142.943 16.0847 142.892 15.9468 142.892 15.6883C142.892 15.4987 142.788 14.8093 142.375 14.2577C142.082 13.8441 141.513 13.1891 140.22 13.1891C138.755 13.1891 137.876 14.1198 137.876 15.4297C137.876 16.4294 138.324 17.1878 139.962 18.5666L140.513 19.032C142.892 21.014 143.754 22.5135 143.754 24.5818C143.754 25.84 143.323 27.3395 141.892 28.3736C140.91 29.063 139.807 29.2699 138.755 29.2699C137.618 29.2699 136.721 29.1147 135.877 28.7011L135.911 28.6839Z" fill="#282828"/>
<path d="M155.784 19.2733C154.957 18.0495 154.802 17.1533 154.785 16.1881C154.767 14.4645 156.146 12.1895 159.576 12.1895C160.541 12.1895 161.437 12.4135 161.955 12.6548C162.282 12.7927 162.282 12.965 162.282 13.2236C162.282 13.9475 162.127 15.6883 162.058 16.0157C162.023 16.3432 161.937 16.3777 161.817 16.3777C161.696 16.3777 161.679 16.2915 161.679 15.964C161.679 15.3953 161.541 14.7058 161.11 14.1371C160.714 13.62 160.024 13.1546 158.921 13.1546C158.094 13.1546 156.818 13.7924 156.818 15.6366C156.818 17.6876 158.507 19.4284 160.093 21.3588C160.765 22.2033 163.196 24.6335 163.557 24.9955C163.954 24.3922 164.505 22.9789 164.505 21.6345C164.505 21.307 164.419 20.9106 164.126 20.6349C163.868 20.3763 163.454 20.3074 163.161 20.3074C163.04 20.3074 162.92 20.2557 162.92 20.135C162.92 19.9627 163.075 19.911 163.23 19.911C163.713 19.911 164.488 19.9282 165.591 20.0661C165.97 20.1006 166.263 20.2384 166.263 20.497C166.263 22.1688 165.453 24.2026 164.333 25.6504C165.66 26.8397 166.539 27.4429 167.073 27.7876C167.711 28.2013 168.797 28.546 169.176 28.546C169.349 28.546 169.452 28.5632 169.452 28.7356C169.452 28.8734 169.297 28.9251 168.866 28.9251H167.349C165.109 28.9251 164.385 28.6839 162.696 27.2533C162.041 27.9083 160.731 29.2354 158.025 29.2354C153.802 29.2354 152.544 26.3226 152.544 24.4267C152.544 21.8758 154.578 19.8937 155.767 19.2733H155.784ZM161.955 26.5811C160.817 25.4953 158.921 23.4443 158.404 22.841C157.887 22.2378 156.629 20.6693 156.301 20.1178C155.629 20.6693 154.94 21.6862 154.94 23.427C154.94 26.1502 156.68 27.891 158.731 27.891C160.248 27.891 161.558 27.012 161.972 26.5811H161.955Z" fill="#282828"/>
<path d="M174.381 28.6839C174.071 28.5287 174.002 28.4253 174.002 27.9427C174.002 26.7535 174.088 25.4436 174.105 25.0989C174.123 24.7714 174.192 24.5301 174.347 24.5301C174.519 24.5301 174.536 24.7197 174.536 24.892C174.536 25.1678 174.622 25.6332 174.709 25.9951C175.14 27.598 176.312 28.2013 177.535 28.2013C179.311 28.2013 180.172 26.8741 180.172 25.7193C180.172 24.6507 179.879 23.6511 178.242 22.2378L177.328 21.4622C175.157 19.5835 174.416 18.0668 174.416 16.3087C174.416 13.913 176.225 12.1895 178.966 12.1895C180.241 12.1895 181.069 12.4135 181.586 12.5514C181.758 12.5859 181.861 12.6548 181.861 12.8099C181.861 13.0857 181.792 13.7234 181.792 15.4297C181.792 15.9123 181.723 16.0847 181.568 16.0847C181.43 16.0847 181.362 15.9468 181.362 15.6883C181.362 15.4987 181.258 14.8093 180.844 14.2577C180.551 13.8441 179.983 13.1891 178.69 13.1891C177.225 13.1891 176.346 14.1198 176.346 15.4297C176.346 16.4294 176.794 17.1878 178.431 18.5666L178.983 19.032C181.362 21.014 182.223 22.5135 182.223 24.5818C182.223 25.84 181.792 27.3395 180.362 28.3736C179.379 29.063 178.276 29.2699 177.225 29.2699C176.087 29.2699 175.191 29.1147 174.347 28.7011L174.381 28.6839Z" fill="#282828"/>
<path d="M187.721 18.8082C187.721 15.499 187.721 14.8957 187.687 14.1891C187.652 13.448 187.497 13.1032 186.842 12.9481C186.687 12.9136 186.343 12.8792 186.067 12.8792C185.86 12.8792 185.739 12.8275 185.739 12.6896C185.739 12.5517 185.877 12.5 186.17 12.5C187.222 12.5 188.462 12.5689 189.014 12.5689C189.824 12.5689 190.962 12.5 191.875 12.5C194.34 12.5 195.236 13.4135 195.546 13.741C195.977 14.2063 196.529 15.1715 196.529 16.3263C196.529 19.4114 194.478 21.6004 191.686 21.6004C191.582 21.6004 191.375 21.6004 191.272 21.5831C191.168 21.5659 191.031 21.5314 191.031 21.3935C191.031 21.2212 191.168 21.1522 191.582 21.1522C192.685 21.1522 194.219 19.7734 194.219 17.5672C194.219 16.8434 194.167 15.3956 193.064 14.2925C192.358 13.5686 191.548 13.448 191.1 13.448C190.807 13.448 190.514 13.4652 190.324 13.5341C190.221 13.5858 190.169 13.7065 190.169 13.9478V22.6517C190.169 24.651 190.169 26.3746 190.272 27.3053C190.324 27.9086 190.445 28.3912 191.048 28.4773C191.324 28.529 191.754 28.5635 192.047 28.5635C192.254 28.5635 192.358 28.6325 192.358 28.7359C192.358 28.891 192.203 28.9599 191.979 28.9599C190.686 28.9599 189.428 28.891 188.928 28.891C188.48 28.891 187.239 28.9599 186.446 28.9599C186.187 28.9599 186.049 28.891 186.049 28.7359C186.049 28.6325 186.136 28.5635 186.36 28.5635C186.653 28.5635 186.894 28.5118 187.066 28.4773C187.463 28.3912 187.566 27.9086 187.635 27.2881C187.739 26.3746 187.739 24.651 187.739 22.6517V18.8254L187.721 18.8082Z" fill="#282828"/>
<path d="M201.235 23.272C201.132 23.272 201.097 23.3237 201.063 23.4444L199.994 26.564C199.804 27.1156 199.701 27.6326 199.701 27.8912C199.701 28.2876 199.873 28.5633 200.494 28.5633H200.787C201.028 28.5633 201.08 28.615 201.08 28.7357C201.08 28.9081 200.959 28.9598 200.752 28.9598C200.115 28.9598 199.27 28.8908 198.667 28.8908C198.46 28.8908 197.374 28.9598 196.34 28.9598C196.082 28.9598 195.961 28.9081 195.961 28.7357C195.961 28.5978 196.047 28.5633 196.202 28.5633C196.375 28.5633 196.65 28.5461 196.805 28.5116C197.719 28.3738 198.081 27.6326 198.477 26.5468L203.424 12.879C203.665 12.2413 203.786 12 203.975 12C204.148 12 204.268 12.1896 204.475 12.6894C204.941 13.8787 208.112 22.7722 209.37 26.0814C210.111 28.0463 210.697 28.3393 211.111 28.4599C211.404 28.5289 211.697 28.5461 211.938 28.5461C212.093 28.5461 212.197 28.5633 212.197 28.7185C212.197 28.8908 212.024 28.9425 211.283 28.9425C210.542 28.9425 209.129 28.9425 207.56 28.8908C207.198 28.8736 206.974 28.8736 206.974 28.7185C206.974 28.5806 207.061 28.5461 207.25 28.5289C207.388 28.4772 207.526 28.2876 207.423 28.029L205.837 23.4099C205.802 23.3065 205.733 23.2548 205.647 23.2548H201.252L201.235 23.272ZM205.268 22.169C205.372 22.169 205.389 22.1 205.372 22.0311L203.596 16.6536C203.579 16.5674 203.562 16.464 203.493 16.464C203.424 16.464 203.389 16.5674 203.372 16.6536L201.562 22.0138C201.545 22.1 201.562 22.169 201.649 22.169H205.285H205.268Z" fill="#282828"/>
</svg>
