<svg width="24" height="38" viewBox="0 0 24 38" fill="none" xmlns="http://www.w3.org/2000/svg">
<path d="M18.5855 8.41416C18.5653 8.35356 18.5451 8.30305 18.535 8.26265C18.4845 8.10103 18.4239 7.94952 18.3229 7.798C18.2421 7.67679 18.1411 7.56568 18.0199 7.49497C17.8482 7.38386 17.7876 7.22225 17.7775 7.04043C17.7573 6.85861 17.7775 6.67679 17.8179 6.50507C17.8987 6.20204 18.0401 5.94952 18.3128 5.7879C18.3936 5.7374 18.4845 5.71719 18.5754 5.68689C18.6865 5.65659 18.7472 5.7273 18.8078 5.798C18.929 5.95962 19.0502 6.12124 19.1209 6.31315C19.1815 6.45457 19.232 6.59598 19.2421 6.7475C19.2421 6.8081 19.2724 6.86871 19.2623 6.92932C19.2623 7.17174 19.2118 7.40406 19.1209 7.62629C19.0199 7.85861 18.8886 8.06063 18.7371 8.25255C18.6966 8.30305 18.6461 8.35356 18.5956 8.41416H18.5855Z" fill="white"/>
<path d="M18.0198 7.81842C17.8682 7.93964 17.7167 8.02044 17.5248 8.01034C17.4238 8.01034 17.3935 7.94974 17.3834 7.85883C17.3834 7.69721 17.3733 7.5457 17.3834 7.38408C17.3935 7.23256 17.4238 7.08105 17.5248 6.91943C17.5248 6.94974 17.5248 6.96994 17.5248 6.99014C17.5248 7.10125 17.5248 7.21236 17.545 7.31337C17.5652 7.42448 17.646 7.50529 17.7268 7.576C17.8177 7.64671 17.9086 7.73762 18.0097 7.81842H18.0198Z" fill="white"/>
<path d="M17.1513 5.2627C17.323 5.2829 17.4342 5.39401 17.4443 5.55563C17.4544 5.70714 17.3129 5.85866 17.1513 5.84855C16.9796 5.84855 16.8584 5.72734 16.8584 5.55563C16.8584 5.37381 16.9897 5.2728 17.1513 5.2627ZM17.1513 5.71724C17.2523 5.71724 17.3533 5.63643 17.3533 5.52532C17.3533 5.41421 17.2523 5.3233 17.1614 5.3334C17.0503 5.3334 16.9594 5.42431 16.9594 5.52532C16.9594 5.57583 16.9897 5.62633 17.0301 5.66674C17.0705 5.70714 17.1109 5.71724 17.1614 5.71724H17.1513Z" fill="white"/>
<path d="M17.1613 5.62621C17.0905 5.62621 17.04 5.57571 17.04 5.505C17.04 5.44439 17.1006 5.38379 17.1714 5.38379C17.2219 5.38379 17.2926 5.4545 17.2926 5.5151C17.2926 5.57571 17.2219 5.62621 17.1613 5.62621Z" fill="white"/>
<path d="M18.5758 5.12121C18.4444 4.9697 18.2727 4.88889 18.0909 4.82828C17.9899 4.78788 17.8788 4.76768 17.7677 4.73737C17.6263 4.70707 17.4848 4.66667 17.3434 4.65656C17.1515 4.64646 16.9596 4.65656 16.7677 4.65656C16.5455 4.65656 16.3333 4.69697 16.1212 4.75757C15.9798 4.79798 15.8384 4.85858 15.697 4.90909C15.505 4.9798 15.3333 5.09091 15.1616 5.21212C14.899 5.40404 14.6768 5.62626 14.4949 5.88889C14.404 6.0202 14.3333 6.17172 14.2424 6.30303C14.1616 6.42424 14.0606 6.54545 13.9697 6.66667C13.8586 6.79798 13.5252 7.0505 13.3636 7.20202C13.2222 7.28283 13.0707 7.34343 12.899 7.37374C12.5252 7.46464 12.1111 7.41414 11.7475 7.25252C11.6869 7.16161 11.6162 7.07071 11.5354 6.9899C11.2121 6.65656 10.8687 6.36364 10.4848 6.10101C10.0101 5.77778 9.54545 5.43434 9.0606 5.12121C8.39394 4.69697 7.70707 4.28283 7.0202 3.87879C6.30303 3.46465 5.57576 3.06061 4.84848 2.66667C4.40404 2.42424 3.93939 2.21212 3.48485 1.9899C3.0202 1.75758 2.57576 1.48485 2.18182 1.13131C1.80808 0.787879 1.41414 0.464646 1.0303 0.131313C0.979798 0.0909091 0.929293 0.040404 0.878788 0L0.858586 0.020202C0.888889 0.121212 0.909091 0.222222 0.949495 0.323232C1.08081 0.636364 1.19192 0.959596 1.34343 1.26263C1.45455 1.49495 1.60606 1.71717 1.76768 1.91919C1.87879 2.07071 2.0404 2.18182 2.20202 2.34343C1.41414 2.0404 0.646465 1.75758 0 1.22222C0.222222 1.71717 0.535353 2.14141 0.919192 2.51515C1.30303 2.88889 1.74747 3.17172 2.29293 3.28283C1.65657 3.35353 1.0202 3.35353 0.40404 3.11111C1.0101 3.84848 1.73737 4.35353 2.74747 4.35353C2.67677 4.37374 2.60606 4.39394 2.54545 4.41414C2.34343 4.44444 2.13131 4.48485 1.92929 4.50505C1.73737 4.52525 1.54545 4.53535 1.35354 4.53535C1.28283 4.53535 1.21212 4.50505 1.15151 4.49495C1.13131 4.49495 1.09091 4.49495 1.08081 4.49495C1.07071 4.51515 1.07071 4.55555 1.08081 4.57576C1.21212 4.85858 1.42424 5.0303 1.70707 5.15151C1.9697 5.26263 2.24242 5.28283 2.51515 5.30303C2.62626 5.30303 2.73737 5.28283 2.83838 5.28283C2.85859 5.28283 2.87879 5.29293 2.88889 5.33333C2.49495 5.38384 2.09091 5.43434 1.65657 5.49495C2.13131 5.81818 2.64646 6 3.16162 6.14141C3.68687 6.28283 4.22222 6.40404 4.77778 6.37374C4.23232 6.58586 3.71717 6.86869 3.10101 6.90909C3.20202 7.0101 3.29293 7.11111 3.40404 7.19192C3.62626 7.35353 3.86869 7.44444 4.13131 7.50505C4.36364 7.55555 4.60606 7.59596 4.84848 7.62626C5.09091 7.64646 5.32323 7.64646 5.56566 7.64646C5.56566 7.66667 5.56566 7.67677 5.57576 7.69697C5.11111 7.86869 4.64646 8.0404 4.15151 8.22222C4.87879 8.65656 5.63636 8.85858 6.47475 8.70707C6.47475 8.71717 6.47475 8.73737 6.48485 8.74747C6.06061 8.92929 5.62626 9.11111 5.19192 9.29293C5.46465 9.53535 5.80808 9.61616 6.17172 9.65656C6.53535 9.69697 6.88889 9.63636 7.23232 9.53535C7.23232 9.54545 7.24242 9.56565 7.25252 9.57576C6.90909 9.71717 6.55555 9.85858 6.18182 10.0202C6.26263 10.0707 6.32323 10.1313 6.38384 10.1515C6.55555 10.202 6.72727 10.2626 6.89899 10.2929C7.12121 10.3232 7.35353 10.3535 7.57576 10.3535C7.84848 10.3535 8.11111 10.3131 8.37374 10.2828C8.58586 10.2626 8.80808 10.2323 9.0303 10.202C9.0202 10.2222 9.0101 10.2323 9 10.2424C8.31313 10.7677 7.49495 11.0909 6.65656 11.3636C8 11.5657 8.44444 11.3838 9.27273 10.8788C9.29293 10.8687 8.78788 11.4747 8.75757 11.505C8.29293 11.9899 7.46465 12.1515 6.65656 12.4747C7.29293 12.5556 8.42424 12.8687 9.07071 12.6465L8.81818 12.9798C9.0303 13.0404 7.29293 13.5556 7.43434 13.7273C7.54545 13.8586 8.95959 14 9.49495 14.1515C10.5455 15.0808 10.2828 15.101 9.80808 15.8889C9.06061 17.1111 5.39394 22.7576 5.39394 22.7576C5.39394 22.7576 5.0101 23.4141 5.64646 23.1212C5.60606 23.1616 11.6364 15.9798 12.4747 14.9091C12.5151 14.9091 12.5455 14.899 12.5859 14.8889C12.7172 14.8586 12.8485 14.8182 12.9798 14.7778C13.1616 14.7172 13.3535 14.6667 13.5354 14.596C13.7374 14.5151 13.9192 14.4141 14.1111 14.3131C14.3333 14.202 14.5354 14.0505 14.7273 13.8889C15.0404 13.6364 15.303 13.3434 15.5151 13C15.6263 12.8182 15.7374 12.6364 15.8283 12.4444C15.899 12.303 15.9596 12.1414 16.0101 11.9899C16.0606 11.8384 16.1111 11.6768 16.1515 11.5151C16.1919 11.3636 16.2222 11.2121 16.2525 11.0606C16.2828 10.9192 16.2929 10.7677 16.3131 10.6162C16.3434 10.3434 16.3636 10.0808 16.3838 9.80808C16.3838 9.72727 16.3838 9.64646 16.404 9.57576C16.4343 9.48485 16.4747 9.38384 16.5252 9.30303C16.5758 9.21212 16.6465 9.13131 16.7172 9.0505C16.8586 8.89899 17.0303 8.78788 17.1212 8.59596C17.1515 8.52525 17.1212 8.41414 17.0505 8.38384C16.9697 8.35353 16.8889 8.32323 16.8081 8.31313C16.5657 8.27273 16.4343 8.10101 16.3939 7.89899C16.3636 7.74747 16.3737 7.59596 16.4141 7.43434C16.4646 7.27273 16.5253 7.12121 16.6263 6.9899C16.7475 6.81818 16.9091 6.67677 17.0909 6.57576C17.202 6.51515 17.3333 6.47475 17.4545 6.43434C17.5354 6.40404 17.596 6.39394 17.6263 6.29293C17.6667 6.15151 17.7475 6.0202 17.8283 5.89899C17.9091 5.78788 18.0202 5.67677 18.1414 5.59596C18.2626 5.50505 18.404 5.45454 18.5657 5.44444C18.5758 5.44444 18.596 5.42424 18.596 5.41414C18.596 5.31313 18.5859 5.21212 18.5151 5.12121H18.5758ZM17.7879 5.60606C17.7071 5.72727 17.6263 5.83838 17.5657 5.95959C17.4242 6.23232 17.2222 6.43434 16.9495 6.58586C16.8384 6.64646 16.6364 6.64646 16.5556 6.51515C16.5152 6.43434 16.4747 6.37374 16.4848 6.27273C16.4949 6.20202 16.5152 6.15151 16.5556 6.09091C16.6263 5.9697 16.6162 5.93939 16.4949 5.84848C16.4242 5.78788 16.3535 5.71717 16.2929 5.63636C16.2424 5.56566 16.2121 5.45454 16.2121 5.36364C16.2121 5.28283 16.2626 5.23232 16.3434 5.21212C16.4848 5.18182 16.6263 5.16162 16.7677 5.11111C17.0202 5.0202 17.303 4.9899 17.5758 5.0303C17.7071 5.0505 17.8081 5.13131 17.8586 5.26262C17.899 5.37374 17.8586 5.47475 17.8081 5.56566C17.8081 5.57576 17.7879 5.58586 17.7879 5.60606Z" fill="white"/>
<path d="M14.9297 14.3434C14.9297 14.3434 17.5458 12.1717 18.2327 12.8889C18.1822 12.8384 17.5256 10.9798 14.9297 14.3434Z" fill="white"/>
<path d="M20.1927 37.9898L13.223 37.9999V36.7575H19.5361L22.4452 32.4343V16.6161L11.5361 16.6262L12.5361 15.3939L23.6775 15.3838L23.6876 32.8181L20.1927 37.9898Z" fill="white"/>
<path d="M2.2727 32.4546V16.6264H9.02017L9.78785 15.394H1.03027L1.04037 32.8183L4.3232 38.0001H12V36.7577L5.01007 36.7678L2.2727 32.4546Z" fill="white"/>
<path d="M4.77844 19.2423H7.3643L8.08147 18.1211L3.65723 18.1312L3.66733 21.2322H4.77844V19.2423Z" fill="white"/>
<path d="M11.6161 35.0808V33.9697H6.16154L4.7777 31.9697L4.7979 31.9394L12.9393 20.4647L12.9292 18.1313H10.2827L9.41406 19.2425H11.8181V20.1111L3.41406 31.9697L5.57568 35.0808H11.6161Z" fill="white"/>
<path d="M13.2024 33.8991L13.1923 20.7173L11.96 22.4648L11.9701 35.0708L13.2125 35.0607L13.2024 33.8991Z" fill="white"/>
<path d="M13.293 18.1313V19.3637H19.7273V31.9899L18.4647 33.8889L13.5455 33.899V35.0606L19.1213 35.0505L20.9596 32.3637V18.1313H13.293Z" fill="white"/>
</svg>
