<svg width="64" height="103" viewBox="0 0 64 103" fill="none" xmlns="http://www.w3.org/2000/svg">
<path d="M50.2174 22.7339C50.1629 22.5702 50.1083 22.4337 50.081 22.3245C49.9445 21.8879 49.7808 21.4785 49.5079 21.0691C49.2895 20.7416 49.0166 20.4414 48.6891 20.2504C48.2251 19.9502 48.0614 19.5135 48.0341 19.0222C47.9795 18.531 48.0341 18.0397 48.1433 17.5758C48.3616 16.757 48.7437 16.0747 49.4806 15.6381C49.6989 15.5016 49.9445 15.447 50.1901 15.3652C50.4904 15.2833 50.6541 15.4743 50.8179 15.6654C51.1454 16.102 51.4728 16.5387 51.6639 17.0572C51.8276 17.4393 51.9641 17.8214 51.9914 18.2308C51.9914 18.3945 52.0733 18.5583 52.046 18.722C52.046 19.377 51.9095 20.0047 51.6639 20.6052C51.391 21.2329 51.0362 21.7787 50.6268 22.2972C50.5176 22.4337 50.3812 22.5702 50.2447 22.7339H50.2174Z" fill="white"/>
<path d="M48.6895 21.1243C48.2801 21.4518 47.8708 21.6701 47.3522 21.6428C47.0793 21.6428 46.9974 21.4791 46.9701 21.2334C46.9701 20.7968 46.9428 20.3874 46.9701 19.9507C46.9974 19.5414 47.0793 19.132 47.3522 18.6953C47.3522 18.7772 47.3522 18.8318 47.3522 18.8864C47.3522 19.1866 47.3522 19.4868 47.4068 19.7597C47.4614 20.0599 47.6797 20.2782 47.8981 20.4693C48.1437 20.6603 48.3893 20.9059 48.6622 21.1243H48.6895Z" fill="white"/>
<path d="M46.3422 14.2192C46.8062 14.2738 47.1064 14.574 47.1337 15.0107C47.161 15.4201 46.7789 15.8294 46.3422 15.8022C45.8783 15.8022 45.5508 15.4747 45.5508 15.0107C45.5508 14.5194 45.9056 14.2465 46.3422 14.2192ZM46.3422 15.4474C46.6152 15.4474 46.8881 15.229 46.8881 14.9288C46.8881 14.6286 46.6152 14.383 46.3695 14.4103C46.0693 14.4103 45.8237 14.6559 45.8237 14.9288C45.8237 15.0653 45.9056 15.2017 46.0147 15.3109C46.1239 15.4201 46.2331 15.4474 46.3695 15.4474H46.3422Z" fill="white"/>
<path d="M46.3695 15.2019C46.1784 15.2019 46.042 15.0654 46.042 14.8744C46.042 14.7106 46.2057 14.5469 46.3968 14.5469C46.5332 14.5469 46.7243 14.7379 46.7243 14.9017C46.7243 15.0654 46.5332 15.2019 46.3695 15.2019Z" fill="white"/>
<path d="M50.1893 13.8368C49.8345 13.4275 49.3705 13.2091 48.8793 13.0454C48.6063 12.9362 48.3061 12.8816 48.0059 12.7998C47.6238 12.7179 47.2418 12.6087 46.8597 12.5814C46.3411 12.5541 45.8226 12.5814 45.3041 12.5814C44.7036 12.5814 44.1305 12.6906 43.5574 12.8543C43.1753 12.9635 42.7932 13.1273 42.4111 13.2637C41.8926 13.4548 41.4286 13.755 40.9647 14.0825C40.2551 14.601 39.6547 15.2014 39.1634 15.911C38.9178 16.2658 38.7268 16.6752 38.4812 17.03C38.2628 17.3575 37.9899 17.685 37.7443 18.0125C37.4441 18.3672 36.5434 19.0495 36.1068 19.4589C35.7247 19.6772 35.3153 19.841 34.8514 19.9229C33.8416 20.1685 32.7226 20.032 31.7401 19.5954C31.5764 19.3497 31.3853 19.1041 31.167 18.8858C30.2937 17.9852 29.3658 17.1937 28.3287 16.4841C27.046 15.6108 25.7906 14.6829 24.4806 13.8368C22.6793 12.6906 20.8235 11.5716 18.9677 10.48C17.03 9.36102 15.065 8.26935 13.1 7.20498C11.8991 6.54998 10.6437 5.97686 9.4156 5.37644C8.16019 4.74874 6.95936 4.01187 5.89499 3.05666C4.8852 2.12874 3.82082 1.25541 2.78374 0.354791C2.64728 0.245624 2.51083 0.109166 2.37437 0L2.31979 0.0545832C2.40166 0.327499 2.45624 0.600415 2.56541 0.873331C2.9202 1.71937 3.22041 2.5927 3.62978 3.41145C3.92999 4.03916 4.33936 4.63957 4.77603 5.1854C5.07624 5.59478 5.5129 5.89499 5.94957 6.33165C3.82082 5.5129 1.74666 4.74874 0 3.30228C0.600415 4.63957 1.44645 5.78582 2.48354 6.79561C3.52062 7.8054 4.72145 8.56956 6.19519 8.86977C4.47582 9.06081 2.75645 9.06081 1.09166 8.40581C2.72916 10.3981 4.69416 11.7627 7.42332 11.7627C7.23227 11.8173 7.04123 11.8718 6.87748 11.9264C6.33165 12.0083 5.75853 12.1175 5.2127 12.1721C4.69415 12.2266 4.17561 12.2539 3.65707 12.2539C3.46603 12.2539 3.27499 12.1721 3.11124 12.1448C3.05666 12.1448 2.94749 12.1448 2.9202 12.1448C2.89291 12.1993 2.89291 12.3085 2.9202 12.3631C3.27499 13.1273 3.84812 13.5912 4.61228 13.9187C5.32186 14.2189 6.05873 14.2735 6.79561 14.3281C7.09582 14.3281 7.39602 14.2735 7.66894 14.2735C7.72352 14.2735 7.77811 14.3008 7.8054 14.41C6.74102 14.5464 5.64936 14.6829 4.47582 14.8466C5.75853 15.72 7.1504 16.2112 8.54227 16.5933C9.96143 16.9754 11.4079 17.3029 12.9089 17.221C11.4352 17.7941 10.0433 18.5583 8.37852 18.6675C8.65144 18.9404 8.89706 19.2133 9.19727 19.4316C9.79768 19.8683 10.4527 20.1139 11.1623 20.2777C11.79 20.4141 12.445 20.5233 13.1 20.6052C13.755 20.6597 14.3827 20.6597 15.0377 20.6597C15.0377 20.7143 15.0377 20.7416 15.065 20.7962C13.8095 21.2602 12.5541 21.7241 11.2168 22.2154C13.1818 23.3889 15.2287 23.9347 17.4939 23.5254C17.4939 23.5526 17.4939 23.6072 17.5212 23.6345C16.375 24.1258 15.2014 24.617 14.0279 25.1083C14.7648 25.7633 15.6927 25.9816 16.6752 26.0908C17.6577 26.1999 18.6129 26.0362 19.5408 25.7633C19.5408 25.7906 19.5681 25.8451 19.5954 25.8724C18.6675 26.2545 17.7122 26.6366 16.7025 27.0733C16.9208 27.2097 17.0845 27.3735 17.2483 27.4281C17.7122 27.5645 18.1762 27.7283 18.6402 27.8101C19.2406 27.892 19.8683 27.9739 20.4687 27.9739C21.2056 27.9739 21.9152 27.8647 22.6247 27.7828C23.1979 27.7283 23.7983 27.6464 24.3987 27.5645C24.3714 27.6191 24.3441 27.6464 24.3168 27.6737C22.461 29.0928 20.2504 29.9662 17.9852 30.703C21.6149 31.2489 22.8158 30.7576 25.0537 29.393C25.1083 29.3658 23.7437 31.0033 23.6618 31.0851C22.4064 32.3951 20.1685 32.8318 17.9852 33.7051C19.7045 33.9235 22.7612 34.7695 24.5079 34.1691L23.8256 35.0697C24.3987 35.2335 19.7045 36.6253 20.0866 37.0893C20.3868 37.4441 24.2076 37.8262 25.6541 38.2355C28.4924 40.7464 27.7828 40.8009 26.5001 42.9297C24.4806 46.232 14.5737 61.488 14.5737 61.488C14.5737 61.488 13.5366 63.2619 15.256 62.4705C15.1468 62.5796 31.4399 43.1753 33.7051 40.2824C33.8143 40.2824 33.8962 40.2551 34.0053 40.2278C34.3601 40.1459 34.7149 40.0368 35.0697 39.9276C35.561 39.7639 36.0795 39.6274 36.5707 39.4364C37.1166 39.218 37.6078 38.9451 38.1264 38.6722C38.7268 38.372 39.2726 37.9626 39.7911 37.5259C40.6372 36.8437 41.3468 36.0522 41.9199 35.1243C42.2201 34.633 42.5203 34.1418 42.7659 33.6232C42.957 33.2412 43.1207 32.8045 43.2572 32.3951C43.3936 31.9858 43.5301 31.5491 43.6393 31.1124C43.7484 30.703 43.8303 30.2937 43.9122 29.8843C43.9941 29.5022 44.0214 29.0928 44.0759 28.6835C44.1578 27.9466 44.2124 27.237 44.267 26.5001C44.267 26.2818 44.267 26.0635 44.3216 25.8724C44.4034 25.6268 44.5126 25.3539 44.6491 25.1356C44.7855 24.8899 44.9766 24.6716 45.1676 24.4533C45.5497 24.0439 46.0136 23.7437 46.2593 23.2252C46.3411 23.0341 46.2593 22.7339 46.0682 22.652C45.8499 22.5702 45.6316 22.4883 45.4132 22.461C44.7582 22.3518 44.4034 21.8879 44.2943 21.342C44.2124 20.9327 44.2397 20.5233 44.3488 20.0866C44.4853 19.65 44.6491 19.2406 44.922 18.8858C45.2495 18.4218 45.6861 18.0397 46.1774 17.7668C46.4776 17.6031 46.8324 17.4939 47.1599 17.3847C47.3782 17.3029 47.542 17.2756 47.6238 17.0027C47.733 16.6206 47.9513 16.2658 48.1697 15.9383C48.388 15.6381 48.6882 15.3379 49.0157 15.1195C49.3432 14.8739 49.7253 14.7375 50.162 14.7102C50.1893 14.7102 50.2438 14.6556 50.2438 14.6283C50.2438 14.3554 50.2165 14.0825 50.0255 13.8368H50.1893ZM48.0605 15.1468C47.8422 15.4743 47.6238 15.7745 47.4601 16.102C47.078 16.8389 46.5322 17.3847 45.7953 17.7941C45.4951 17.9579 44.9493 17.9579 44.7309 17.6031C44.6218 17.3847 44.5126 17.221 44.5399 16.9481C44.5672 16.757 44.6218 16.6206 44.7309 16.4568C44.922 16.1293 44.8947 16.0475 44.5672 15.8018C44.3761 15.6381 44.1851 15.447 44.0214 15.2287C43.8849 15.0377 43.803 14.7375 43.803 14.4918C43.803 14.2735 43.9395 14.137 44.1578 14.0825C44.5399 14.0006 44.922 13.946 45.3041 13.8095C45.9863 13.5639 46.7505 13.482 47.4874 13.5912C47.8422 13.6458 48.1151 13.8641 48.2515 14.2189C48.3607 14.5191 48.2515 14.792 48.1151 15.0377C48.1151 15.065 48.0605 15.0923 48.0605 15.1468Z" fill="white"/>
<path d="M40.3379 38.7542C40.3379 38.7542 47.4064 32.8865 49.2622 34.8242C49.1258 34.6878 47.3518 29.6661 40.3379 38.7542Z" fill="white"/>
<path d="M54.5569 102.644L35.7257 102.671V99.314H52.7829L60.6429 87.6332V44.8945L31.168 44.9218L33.8698 41.5922L63.9725 41.5649L63.9998 88.6702L54.5569 102.644Z" fill="white"/>
<path d="M6.14105 87.6878V44.9219H24.3718L26.446 41.5923H2.78418L2.81147 88.6703L11.6812 102.671H32.4229V99.314L13.5371 99.3413L6.14105 87.6878Z" fill="white"/>
<path d="M12.9102 51.9908H19.8969L21.8346 48.9614L9.88086 48.9887L9.90815 57.3672H12.9102V51.9908Z" fill="white"/>
<path d="M31.3854 94.7836V91.7815H16.6479L12.909 86.3778L12.9636 86.2959L34.9606 55.2926L34.9333 48.9883H27.7829L25.4358 51.9904H31.9312V54.3374L9.22461 86.3778L15.065 94.7836H31.3854Z" fill="white"/>
<path d="M35.6703 91.5906L35.643 55.9751L32.3135 60.6965L32.3408 94.7565L35.6976 94.7292L35.6703 91.5906Z" fill="white"/>
<path d="M35.916 48.9883V52.3179H53.3008V86.4324L49.8893 91.5632L36.5983 91.5905V94.729L51.6633 94.7017L56.6303 87.4421V48.9883H35.916Z" fill="white"/>
</svg>
