<svg width="84" height="101" viewBox="0 0 84 101" fill="none" xmlns="http://www.w3.org/2000/svg">
<path d="M80.9251 36.6357C80.8371 36.3718 80.7491 36.1519 80.7051 35.976C80.4852 35.2723 80.2214 34.6126 79.7815 33.9529C79.4297 33.4251 78.9899 32.9413 78.4621 32.6334C77.7144 32.1497 77.4506 31.446 77.4066 30.6543C77.3186 29.8626 77.4066 29.071 77.5825 28.3233C77.9344 27.0039 78.5501 25.9044 79.7376 25.2007C80.0894 24.9808 80.4852 24.8928 80.8811 24.7609C81.3649 24.6289 81.6287 24.9368 81.8926 25.2447C82.4204 25.9483 82.9482 26.652 83.256 27.4877C83.5199 28.1034 83.7398 28.7191 83.7838 29.3789C83.7838 29.6427 83.9158 29.9066 83.8718 30.1705C83.8718 31.2261 83.6519 32.2376 83.256 33.2052C82.8162 34.2168 82.2445 35.0964 81.5848 35.932C81.4088 36.1519 81.1889 36.3718 80.969 36.6357H80.9251Z" fill="#282828"/>
<path d="M78.4642 34.041C77.8045 34.5688 77.1447 34.9206 76.3091 34.8766C75.8693 34.8766 75.7374 34.6128 75.6934 34.2169C75.6934 33.5132 75.6494 32.8535 75.6934 32.1498C75.7374 31.4901 75.8693 30.8304 76.3091 30.1267C76.3091 30.2587 76.3091 30.3466 76.3091 30.4346C76.3091 30.9184 76.3091 31.4022 76.3971 31.842C76.485 32.3258 76.8369 32.6776 77.1887 32.9855C77.5846 33.2933 77.9804 33.6892 78.4202 34.041H78.4642Z" fill="#282828"/>
<path d="M74.6797 22.9136C75.4274 23.0015 75.9112 23.4853 75.9552 24.189C75.9992 24.8487 75.3834 25.5084 74.6797 25.4645C73.9321 25.4645 73.4043 24.9367 73.4043 24.189C73.4043 23.3974 73.9761 22.9576 74.6797 22.9136ZM74.6797 24.8927C75.1196 24.8927 75.5594 24.5409 75.5594 24.0571C75.5594 23.5733 75.1195 23.1775 74.7237 23.2214C74.2399 23.2214 73.8441 23.6173 73.8441 24.0571C73.8441 24.277 73.976 24.4969 74.152 24.6728C74.3279 24.8487 74.5038 24.8927 74.7237 24.8927H74.6797Z" fill="#282828"/>
<path d="M74.7245 24.4969C74.4167 24.4969 74.1968 24.277 74.1968 23.9692C74.1968 23.7053 74.4607 23.4414 74.7685 23.4414C74.9884 23.4414 75.2963 23.7493 75.2963 24.0132C75.2963 24.277 74.9884 24.4969 74.7245 24.4969Z" fill="#282828"/>
<path d="M80.8809 22.2983C80.3091 21.6386 79.5614 21.2868 78.7698 21.0229C78.33 20.8469 77.8462 20.759 77.3624 20.627C76.7467 20.4951 76.1309 20.3192 75.5152 20.2752C74.6796 20.2312 73.8439 20.2752 73.0083 20.2752C72.0407 20.2752 71.1171 20.4511 70.1935 20.715C69.5778 20.8909 68.962 21.1548 68.3463 21.3747C67.5107 21.6826 66.763 22.1664 66.0153 22.6941C64.8718 23.5298 63.9042 24.4974 63.1126 25.6409C62.7168 26.2126 62.4089 26.8723 62.0131 27.4441C61.6612 27.9719 61.2214 28.4996 60.8256 29.0274C60.3418 29.5991 58.8904 30.6987 58.1867 31.3584C57.571 31.7102 56.9113 31.9741 56.1636 32.1061C54.5363 32.5019 52.7331 32.282 51.1498 31.5783C50.8859 31.1825 50.578 30.7866 50.2262 30.4348C48.8188 28.9834 47.3234 27.708 45.6522 26.5645C43.5851 25.1571 41.5619 23.6617 39.4509 22.2983C36.5481 20.4511 33.5574 18.6479 30.5667 16.8887C27.4441 15.0854 24.2775 13.3262 21.1108 11.611C19.1757 10.5554 17.1525 9.63182 15.1734 8.66424C13.1503 7.65268 11.2151 6.46519 9.49987 4.92586C7.87258 3.43051 6.15733 2.02312 4.48605 0.571752C4.26615 0.395828 4.04624 0.175924 3.82634 0L3.73838 0.0879618C3.87032 0.527771 3.95828 0.96758 4.1342 1.40739C4.70596 2.7708 5.18974 4.17819 5.84946 5.49761C6.33325 6.50917 6.99296 7.47675 7.69666 8.35637C8.18045 9.01608 8.88414 9.49987 9.58784 10.2036C6.15733 8.88414 2.81478 7.65268 0 5.32169C0.96758 7.47675 2.33099 9.32395 4.00226 10.9512C5.67354 12.5785 7.60869 13.81 9.98366 14.2938C7.21287 14.6017 4.44207 14.6017 1.75924 13.5461C4.39809 16.7567 7.56471 18.9558 11.9628 18.9558C11.6549 19.0437 11.3471 19.1317 11.0832 19.2197C10.2036 19.3516 9.27997 19.5275 8.40035 19.6155C7.56471 19.7034 6.72908 19.7474 5.89344 19.7474C5.58557 19.7474 5.27771 19.6155 5.01382 19.5715C4.92586 19.5715 4.74994 19.5715 4.70596 19.5715C4.66197 19.6595 4.66197 19.8354 4.70596 19.9233C5.27771 21.1548 6.20131 21.9025 7.43277 22.4303C8.57627 22.914 9.76376 23.002 10.9512 23.09C11.435 23.09 11.9188 23.002 12.3586 23.002C12.4466 23.002 12.5346 23.046 12.5785 23.2219C10.8633 23.4418 9.10404 23.6617 7.21287 23.9256C9.27997 25.333 11.523 26.1247 13.766 26.7404C16.053 27.3561 18.384 27.8839 20.803 27.7519C18.428 28.6755 16.185 29.907 13.5021 30.0829C13.9419 30.5227 14.3378 30.9626 14.8216 31.3144C15.7891 32.0181 16.8447 32.4139 17.9882 32.6778C18.9997 32.8977 20.0553 33.0736 21.1108 33.2056C22.1664 33.2935 23.1779 33.2935 24.2335 33.2935C24.2335 33.3815 24.2335 33.4255 24.2775 33.5134C22.2543 34.2611 20.2312 35.0088 18.0761 35.8004C21.2428 37.6916 24.5413 38.5712 28.1918 37.9115C28.1918 37.9555 28.1918 38.0435 28.2357 38.0875C26.3885 38.8791 24.4974 39.6708 22.6062 40.4624C23.7937 41.518 25.289 41.8698 26.8723 42.0457C28.4556 42.2217 29.995 41.9578 31.4903 41.518C31.4903 41.5619 31.5343 41.6499 31.5783 41.6939C30.0829 42.3096 28.5436 42.9254 26.9163 43.6291C27.2682 43.849 27.532 44.1128 27.7959 44.2008C28.5436 44.4207 29.2913 44.6846 30.039 44.8165C31.0065 44.9485 32.0181 45.0804 32.9857 45.0804C34.1732 45.0804 35.3167 44.9045 36.4602 44.7726C37.3838 44.6846 38.3513 44.5526 39.3189 44.4207C39.2749 44.5087 39.231 44.5526 39.187 44.5966C36.1963 46.8836 32.6338 48.291 28.9834 49.4785C34.8329 50.3581 36.768 49.5665 40.3745 47.3674C40.4624 47.3234 38.2634 49.9623 38.1314 50.0942C36.1083 52.2053 32.5019 52.909 28.9834 54.3164C31.7542 54.6683 36.6801 56.0317 39.4948 55.0641L38.3953 56.5155C39.3189 56.7793 31.7542 59.0224 32.3699 59.77C32.8537 60.3418 39.0111 60.9575 41.342 61.6172C45.916 65.6635 44.7725 65.7514 42.7054 69.182C39.4509 74.5036 23.4858 99.089 23.4858 99.089C23.4858 99.089 21.8145 101.948 24.5853 100.672C24.4094 100.848 50.666 69.5778 54.3164 64.9158C54.4923 64.9158 54.6243 64.8718 54.8002 64.8278C55.3719 64.6959 55.9437 64.52 56.5154 64.3441C57.3071 64.0802 58.1427 63.8603 58.9344 63.5524C59.814 63.2006 60.6057 62.7607 61.4413 62.3209C62.4089 61.8371 63.2885 61.1774 64.1241 60.4737C65.4875 59.3742 66.6311 58.0988 67.5546 56.6034C68.0384 55.8118 68.5222 55.0201 68.9181 54.1845C69.2259 53.5687 69.4898 52.865 69.7097 52.2053C69.9296 51.5456 70.1495 50.8419 70.3254 50.1382C70.5014 49.4785 70.6333 48.8188 70.7653 48.1591C70.8972 47.5434 70.9412 46.8836 71.0292 46.2239C71.1611 45.0364 71.2491 43.8929 71.337 42.7055C71.337 42.3536 71.337 42.0018 71.425 41.6939C71.5569 41.2981 71.7328 40.8583 71.9527 40.5064C72.1727 40.1106 72.4805 39.7587 72.7884 39.4069C73.4041 38.7472 74.1518 38.2634 74.5476 37.4277C74.6796 37.1199 74.5476 36.6361 74.2398 36.5041C73.8879 36.3722 73.5361 36.2403 73.1842 36.1963C72.1287 36.0204 71.5569 35.2727 71.381 34.3931C71.2491 33.7333 71.293 33.0736 71.469 32.3699C71.6889 31.6662 71.9527 31.0065 72.3926 30.4348C72.9203 29.6871 73.624 29.0714 74.4157 28.6316C74.8995 28.3677 75.4712 28.1918 75.999 28.0158C76.3508 27.8839 76.6147 27.8399 76.7467 27.4001C76.9226 26.7844 77.2744 26.2126 77.6263 25.6848C77.9781 25.2011 78.4619 24.7173 78.9897 24.3654C79.5175 23.9696 80.1332 23.7497 80.8369 23.7057C80.8809 23.7057 80.9688 23.6177 80.9688 23.5738C80.9688 23.134 80.9248 22.6941 80.617 22.2983H80.8809ZM77.4504 24.4094C77.0985 24.9372 76.7467 25.421 76.4828 25.9487C75.8671 27.1362 74.9874 28.0158 73.7999 28.6755C73.3162 28.9394 72.4365 28.9394 72.0847 28.3677C71.9088 28.0158 71.7328 27.7519 71.7768 27.3121C71.8208 27.0043 71.9088 26.7844 72.0847 26.5205C72.3926 25.9927 72.3486 25.8608 71.8208 25.4649C71.5129 25.2011 71.2051 24.8932 70.9412 24.5413C70.7213 24.2335 70.5893 23.7497 70.5893 23.3539C70.5893 23.002 70.8092 22.7821 71.1611 22.6941C71.7768 22.5622 72.3926 22.4742 73.0083 22.2543C74.1078 21.8585 75.3393 21.7266 76.5268 21.9025C77.0985 21.9904 77.5383 22.3423 77.7582 22.914C77.9341 23.3978 77.7582 23.8376 77.5383 24.2335C77.5383 24.2775 77.4504 24.3214 77.4504 24.4094Z" fill="#282828"/>
</svg>
